<?xml version="1.0" encoding="UTF-8" standalone="no"?><!DOCTYPE svg PUBLIC "-//W3C//DTD SVG 1.1//EN" "http://www.w3.org/Graphics/SVG/1.1/DTD/svg11.dtd"><svg width="100%" height="100%" viewBox="0 0 3334 2084" version="1.1" xmlns="http://www.w3.org/2000/svg" xmlns:xlink="http://www.w3.org/1999/xlink" xml:space="preserve" xmlns:affinity="https://www.affinity.studio/" style="fill-rule:evenodd;clip-rule:evenodd;"><path d="M3233.333,0c55.192,0 100,44.808 100,100l0,1883.333c0,55.192 -44.808,100 -100,100l-3133.333,0c-55.192,0 -100,-44.808 -100,-100l0,-1883.333c0,-55.192 44.808,-100 100,-100l3133.333,0Z" style="fill:#e8f2f9;"/><circle cx="375" cy="375" r="625" style="fill:#d5e8f5;"/><circle cx="3041.667" cy="1833.333" r="708.333" style="fill:#d5e8f5;"/><path d="M1250,500c45.993,0 83.333,37.34 83.333,83.333l0,916.667c0,45.993 -37.34,83.333 -83.333,83.333l-875,0c-45.993,0 -83.333,-37.34 -83.333,-83.333l0,-916.667c0,-45.993 37.34,-83.333 83.333,-83.333l875,0Z" style="fill:#fff;stroke:#c9dcea;stroke-width:8.33px;"/><circle cx="604.167" cy="979.167" r="216.667" style="fill:none;stroke:#c9dcea;stroke-width:91.67px;"/><path d="M604.167,762.5c0.298,-0.001 0.597,-0.002 0.896,-0.002c118.86,0 216.667,97.807 216.667,216.667c0,25.595 -4.535,50.989 -13.396,75.002" style="fill:none;fill-rule:nonzero;stroke:#14b8c4;stroke-width:91.67px;"/><path d="M811.659,1042.55c-0.191,0.637 -0.385,1.273 -0.582,1.908c-35.211,113.525 -157.602,177.967 -271.126,142.757c-53.386,-16.558 -98.347,-53.149 -125.404,-102.059" style="fill:none;fill-rule:nonzero;stroke:#ff9a4d;stroke-width:91.67px;"/><g><path d="M962.5,833.333c13.798,0 25,11.202 25,25l0,241.667c0,13.798 -11.202,25 -25,25l-41.667,0c-13.798,0 -25,-11.202 -25,-25l0,-241.667c0,-13.798 11.202,-25 25,-25l41.667,0Z" style="fill:#146193;"/><path d="M1087.5,750c13.798,0 25,11.202 25,25l0,325c0,13.798 -11.202,25 -25,25l-41.667,0c-13.798,0 -25,-11.202 -25,-25l0,-325c0,-13.798 11.202,-25 25,-25l41.667,0Z" style="fill:#8a63f0;"/><path d="M1212.5,916.667c13.798,0 25,11.202 25,25l0,158.333c0,13.798 -11.202,25 -25,25l-41.667,0c-13.798,0 -25,-11.202 -25,-25l0,-158.333c0,-13.798 11.202,-25 25,-25l41.667,0Z" style="fill:#2fbf3a;"/></g><path d="M750,616.667c11.498,0 20.833,9.335 20.833,20.833c0,11.498 -9.335,20.833 -20.833,20.833l-333.333,0c-11.498,0 -20.833,-9.335 -20.833,-20.833c0,-11.498 9.335,-20.833 20.833,-20.833l333.333,0Z" style="fill:#0b1b30;"/><path d="M1212.5,1375c9.199,0 16.667,7.468 16.667,16.667c0,9.199 -7.468,16.667 -16.667,16.667l-800,0c-9.199,0 -16.667,-7.468 -16.667,-16.667c0,-9.199 7.468,-16.667 16.667,-16.667l800,0Z" style="fill:#b7c6d6;"/><path d="M962.5,1450c9.199,0 16.667,7.468 16.667,16.667c0,9.199 -7.468,16.667 -16.667,16.667l-550,0c-9.199,0 -16.667,-7.468 -16.667,-16.667c0,-9.199 7.468,-16.667 16.667,-16.667l550,0Z" style="fill:#b7c6d6;"/><path d="M2958.333,500c45.993,0 83.333,37.34 83.333,83.333l0,916.667c0,45.993 -37.34,83.333 -83.333,83.333l-875,0c-45.993,0 -83.333,-37.34 -83.333,-83.333l0,-916.667c0,-45.993 37.34,-83.333 83.333,-83.333l875,0Z" style="fill:#0b1b30;"/><g><path d="M2283.333,662.5l475,0" style="fill:none;fill-rule:nonzero;stroke:#14b8c4;stroke-width:25px;stroke-linecap:round;"/><path d="M2379.167,746.667l287.5,0" style="fill:none;fill-rule:nonzero;stroke:#ff9a4d;stroke-width:25px;stroke-linecap:round;"/><path d="M2300,930.833l425,0" style="fill:none;fill-rule:nonzero;stroke:#8a63f0;stroke-width:25px;stroke-linecap:round;"/><path d="M2304.167,1065l425,0" style="fill:none;fill-rule:nonzero;stroke:#2fbf3a;stroke-width:25px;stroke-linecap:round;"/><path d="M2379.167,1249.167l275,0" style="fill:none;fill-rule:nonzero;stroke:#14b8c4;stroke-width:25px;stroke-linecap:round;"/><path d="M2287.5,1333.333l475,0" style="fill:none;fill-rule:nonzero;stroke:#ff9a4d;stroke-width:25px;stroke-linecap:round;"/></g><path d="M2270.833,625c0,166.667 500,208.333 500,375c0,166.667 -500,208.333 -500,375m500,-750c0,166.667 -500,208.333 -500,375c0,166.667 500,208.333 500,375" style="fill:none;fill-rule:nonzero;stroke:#fff;stroke-width:29.17px;stroke-linecap:round;"/><path d="M1333.333,1041.667l166.667,0m333.333,0l166.667,0" style="fill-rule:nonzero;stroke:#146193;stroke-width:20.83px;stroke-linecap:round;"/><circle cx="1666.667" cy="1041.667" r="187.5" style="fill:#146193;"/><circle cx="1654.167" cy="1020.833" r="70.833" style="fill:none;stroke:#fff;stroke-width:29.17px;"/><path d="M1708.333,1075l66.667,66.667" style="fill:none;fill-rule:nonzero;stroke:#fff;stroke-width:29.17px;stroke-linecap:round;"/></svg>